<svg width="28" height="26" fill="none" xmlns="http://www.w3.org/2000/svg"><path d="M4.498 25.396H3.19L1.135 22.97v2.427H0v-5.178h1.135v2.285l1.973-2.285h1.307l-2.13 2.515 2.213 2.662zm.428 0v-.946c.34.044.594-.018.764-.185.17-.168.255-.496.255-.984V20.22H9.86v5.177H8.733v-4.2H7.072v2.055c0 .45-.06.826-.181 1.132-.12.306-.288.533-.502.68a1.765 1.765 0 01-.674.297 2.77 2.77 0 01-.79.037zm9.947 0l-.345-.931h-2.295l-.345.931h-1.225l2.014-5.177h1.407l2.022 5.177h-1.233zm-2.278-1.886h1.579l-.79-2.115-.789 2.115zm6.838 1.99c-.866 0-1.582-.259-2.146-.777a2.497 2.497 0 01-.847-1.915c0-.765.282-1.403.847-1.916.564-.518 1.28-.777 2.146-.777.52 0 1 .111 1.439.333.444.217.79.513 1.036.888l-.979.51a1.43 1.43 0 00-.608-.54 1.94 1.94 0 00-.888-.2c-.56 0-1.011.158-1.357.474-.34.316-.51.725-.51 1.228 0 .498.17.904.51 1.22.346.316.798.474 1.357.474a2 2 0 00.888-.193 1.43 1.43 0 00.608-.54l.979.51a2.61 2.61 0 01-1.028.896 3.232 3.232 0 01-1.447.325zm6.092 0c-.866 0-1.581-.259-2.146-.777a2.497 2.497 0 01-.847-1.915c0-.765.282-1.403.847-1.916.565-.518 1.28-.777 2.146-.777.52 0 1 .111 1.439.333.444.217.79.513 1.036.888l-.979.51a1.43 1.43 0 00-.608-.54 1.94 1.94 0 00-.888-.2c-.56 0-1.011.158-1.357.474-.34.316-.51.725-.51 1.228 0 .498.17.904.51 1.22.346.316.798.474 1.357.474a2 2 0 00.888-.193 1.43 1.43 0 00.608-.54l.979.51a2.61 2.61 0 01-1.028.896c-.438.216-.92.325-1.447.325zM11.99.886c-.156-.356-.597-.645-.985-.645H9.193c-.39 0-.83.289-.983.646l-7.08 16.38c-.154.355.036.645.426.645H4.44c.39 0 .82-.294.962-.655l.957-2.435c.142-.362.572-.654.961-.654h5.456c.39 0 .823.29.969.651l.992 2.44c.146.36.58.653.97.653h2.983c.39 0 .578-.288.424-.646L11.99.886zm-.537 9.988h-2.91c-.39 0-.59-.294-.448-.656l1.634-4.18c.141-.363.372-.363.516 0l1.654 4.182c.141.362-.057.654-.446.654z" fill="#fff"/><rect x="22.895" y="4.94" width="1.127" height="7.888" rx=".563" fill="#fff"/><rect x="19.515" y="9.448" width="1.127" height="7.888" rx=".563" transform="rotate(-90 19.515 9.448)" fill="#fff"/></svg>